<svg width="1807" height="452" viewBox="0 0 1807 452" fill="none" xmlns="http://www.w3.org/2000/svg">
<path d="M1037.38 325.943V88.026C1000.33 75.4531 962.609 68.6562 924.203 68.6562C835.495 68.6562 775 124.734 775 207.323C775 283.797 820.542 336.479 886.479 336.479C904.151 336.479 922.505 331.38 934.057 323.563V264.766C925.901 268.5 916.724 270.203 907.891 270.203C872.88 270.203 850.109 245.729 850.109 207.667C850.109 161.781 876.62 134.589 922.844 134.589C940.516 134.589 949.354 135.609 962.271 139.687V329.677C962.271 368.083 940.516 388.818 901.432 388.818C875.943 388.818 852.49 382.021 831.755 368.766L799.469 423.823C827.677 443.198 859.969 451.693 906.531 451.693C992.177 451.693 1037.38 408.193 1037.38 325.943Z" fill="url(#paint0_linear_119_173)"/>
<path d="M1258.61 334.438H1333.38V88.3698C1296.33 75.7917 1258.61 68.9948 1220.2 68.9948C1131.49 68.9948 1071 125.073 1071 207.667C1071 286.854 1116.54 342.255 1182.48 342.255C1200.15 342.255 1218.51 337.156 1230.06 329.677V270.88C1221.9 274.62 1212.72 276.318 1203.89 276.318C1168.88 276.318 1146.11 249.13 1146.11 208.005C1146.11 162.12 1172.62 134.932 1218.84 134.932C1236.52 134.932 1245.35 135.948 1258.27 140.031V334.438H1258.61ZM1449.28 136.63H1529.15V74.4323H1449.28V0H1374.51V234.516C1374.51 307.589 1406.11 343.276 1471.37 343.276C1498.56 343.276 1529.15 332.057 1547.84 315.406L1520.65 266.802C1509.1 275.641 1496.18 280.057 1483.6 280.057C1460.83 280.057 1449.28 266.802 1449.28 240.292V136.63ZM1736.81 177.073H1619.9C1620.58 149.885 1646.41 128.474 1679.04 128.474C1710.3 128.135 1735.79 151.583 1736.81 177.073ZM1803.77 231.797C1805.47 224.656 1806.49 213.104 1806.49 207.323C1806.49 120.318 1758.91 67.6354 1679.71 67.6354C1602.56 67.6354 1547.16 124.734 1547.16 204.604C1547.16 288.896 1602.56 343.276 1688.55 343.276C1734.09 343.276 1776.24 327.641 1801.05 301.807L1768.42 254.568C1751.09 271.901 1722.54 282.438 1691.27 282.438C1652.53 282.438 1623.64 262.042 1619.9 232.135H1803.77V231.797Z" fill="url(#paint1_linear_119_173)"/>
<path d="M741.38 337.943V91.875C704.333 79.2969 666.609 72.5 628.203 72.5C539.495 72.5 479 128.578 479 211.172C479 290.359 524.542 345.76 590.479 345.76C608.151 345.76 626.505 340.661 638.057 333.182V274.385C629.901 278.125 620.724 279.823 611.891 279.823C576.88 279.823 554.109 252.635 554.109 211.51C554.109 165.625 580.62 138.438 626.844 138.438C644.516 138.438 653.354 139.453 666.271 143.536V337.943H741.38Z" fill="url(#paint2_linear_119_173)"/>
<path d="M189.651 176.938H72.7344C73.4167 149.75 99.2448 128.339 131.875 128.339C163.141 128 188.63 151.448 189.651 176.938ZM256.609 231.661C258.307 224.521 259.328 212.969 259.328 207.188C259.328 120.182 211.745 67.5 132.552 67.5C55.4011 67.5 0 124.599 0 204.469C0 288.76 55.401 343.141 141.391 343.141C186.932 343.141 229.078 327.505 253.891 301.672L221.26 254.432C203.927 271.766 175.375 282.302 144.109 282.302C105.365 282.302 76.474 261.906 72.7344 232H256.609V231.661Z" fill="url(#paint3_linear_119_173)"/>
<path d="M367.938 136.63H447.807V74.4323H367.938V0H293.162V234.516C293.162 307.589 324.771 343.276 390.026 343.276C417.219 343.276 447.807 332.057 466.5 315.406L439.307 266.802C427.755 275.641 414.839 280.057 402.261 280.057C379.49 280.057 367.938 266.802 367.938 240.292V136.63Z" fill="url(#paint4_linear_119_173)"/>
<defs>
<linearGradient id="paint0_linear_119_173" x1="775" y1="260.174" x2="1037.38" y2="260.174" gradientUnits="userSpaceOnUse">
<stop stop-color="#FF7700"/>
<stop offset="1" stop-color="#FFBB7F"/>
</linearGradient>
<linearGradient id="paint1_linear_119_173" x1="1071" y1="171.638" x2="1806.49" y2="171.638" gradientUnits="userSpaceOnUse">
<stop stop-color="#648EB3"/>
<stop offset="1" stop-color="#2B3D4D"/>
</linearGradient>
<linearGradient id="paint2_linear_119_173" x1="293.162" y1="171.638" x2="466.5" y2="171.638" gradientUnits="userSpaceOnUse">
<stop stop-color="#2B3D4D"/>
<stop offset="1" stop-color="#648EB3"/>
</linearGradient>
<linearGradient id="paint3_linear_119_173" x1="0" y1="172.88" x2="741.38" y2="172.88" gradientUnits="userSpaceOnUse">
<stop stop-color="#2B3D4D"/>
<stop offset="1" stop-color="#648EB3"/>
</linearGradient>
<linearGradient id="paint4_linear_119_173" x1="293.162" y1="171.638" x2="466.5" y2="171.638" gradientUnits="userSpaceOnUse">
<stop stop-color="#2B3D4D"/>
<stop offset="1" stop-color="#648EB3"/>
</linearGradient>
</defs>
</svg>
